<?xml version="1.0" encoding="UTF-8"?>
<svg id="Layer_2" data-name="Layer 2" xmlns="http://www.w3.org/2000/svg" viewBox="0 0 300 93.63">
  <defs>
    <style>
      .cls-1 {
        fill: #ff5a5f;
      }
    </style>
  </defs>
  <g id="Layer_1-2" data-name="Layer 1">
    <path class="cls-1" d="M158.11,23.53c0,3.37-2.72,6.09-6.09,6.09s-6.09-2.72-6.09-6.09,2.62-6.09,6.09-6.09c3.47,.09,6.09,2.81,6.09,6.09Zm-25.12,12.28v1.5s-2.9-3.75-9.09-3.75c-10.21,0-18.18,7.78-18.18,18.56s7.87,18.56,18.18,18.56c6.28,0,9.09-3.84,9.09-3.84v1.59c0,.75,.56,1.31,1.31,1.31h7.59V34.49h-7.59c-.75,0-1.31,.66-1.31,1.32h0Zm0,22.59c-1.4,2.06-4.22,3.84-7.59,3.84-6,0-10.59-3.75-10.59-10.12s4.59-10.12,10.59-10.12c3.28,0,6.28,1.87,7.59,3.84v12.56Zm14.53-23.9h9v35.24h-9V34.49h0Zm134.39-.94c-6.19,0-9.09,3.75-9.09,3.75V17.53h-9v52.2h7.59c.75,0,1.31-.66,1.31-1.31v-1.59s2.91,3.84,9.09,3.84c10.22,0,18.18-7.87,18.18-18.55s-7.97-18.56-18.09-18.56h0Zm-1.5,28.59c-3.47,0-6.19-1.78-7.59-3.84v-12.56c1.41-1.87,4.41-3.84,7.59-3.84,6,0,10.59,3.75,10.59,10.12s-4.59,10.12-10.59,10.12Zm-21.27-13.31v20.99h-9v-19.96c0-5.81-1.87-8.15-6.93-8.15-2.72,0-5.53,1.41-7.31,3.47v24.56h-8.99V34.49h7.12c.75,0,1.31,.66,1.31,1.31v1.5c2.62-2.72,6.09-3.75,9.56-3.75,3.94,0,7.22,1.13,9.84,3.38,3.19,2.62,4.41,6,4.41,11.9h0Zm-54.08-15.28c-6.18,0-9.09,3.75-9.09,3.75V17.53h-9v52.2h7.59c.75,0,1.31-.66,1.31-1.31v-1.59s2.91,3.84,9.09,3.84c10.22,0,18.18-7.87,18.18-18.55,.09-10.69-7.87-18.56-18.09-18.56h0Zm-1.5,28.59c-3.47,0-6.18-1.78-7.59-3.84v-12.56c1.41-1.87,4.41-3.84,7.59-3.84,6,0,10.59,3.75,10.59,10.12s-4.59,10.12-10.59,10.12Zm-24.37-28.59c2.72,0,4.12,.47,4.12,.47v8.34s-7.5-2.53-12.18,2.81v24.65h-9V34.49h7.59c.75,0,1.31,.66,1.31,1.31v1.5c1.69-1.97,5.34-3.75,8.15-3.75h0Zm-93.44,32.99c-.47-1.12-.94-2.34-1.41-3.37-.75-1.69-1.5-3.28-2.16-4.78l-.09-.09c-6.47-14.06-13.4-28.3-20.71-42.36l-.28-.56c-.77-1.46-1.52-2.93-2.25-4.41-.94-1.69-1.87-3.47-3.37-5.16-3-3.75-7.31-5.81-11.9-5.81s-8.9,2.06-12,5.62c-1.41,1.69-2.44,3.47-3.37,5.16-.73,1.48-1.48,2.95-2.25,4.41l-.28,.56c-7.22,14.06-14.25,28.3-20.71,42.36l-.09,.19c-.66,1.5-1.41,3.09-2.16,4.78-.47,1.03-.94,2.16-1.4,3.37-1.22,3.47-1.59,6.75-1.12,10.12,1.03,7.03,5.72,12.93,12.18,15.56,2.44,1.03,4.97,1.5,7.59,1.5,.75,0,1.69-.09,2.44-.19,3.09-.37,6.28-1.4,9.37-3.19,3.84-2.16,7.5-5.25,11.62-9.75,4.12,4.5,7.87,7.59,11.62,9.75,3.09,1.78,6.28,2.81,9.37,3.19,.75,.1,1.69,.19,2.44,.19,2.62,0,5.25-.47,7.59-1.5,6.56-2.63,11.15-8.62,12.18-15.56,.74-3.28,.37-6.56-.85-10.03h0Zm-42.27,4.87c-5.06-6.37-8.34-12.37-9.47-17.43-.47-2.16-.56-4.03-.28-5.72,.19-1.5,.75-2.81,1.5-3.94,1.78-2.53,4.78-4.12,8.25-4.12s6.56,1.5,8.25,4.12c.75,1.12,1.31,2.44,1.5,3.94,.28,1.69,.19,3.66-.28,5.72-1.13,4.97-4.41,10.96-9.47,17.43Zm37.39,4.41c-.66,4.87-3.94,9.09-8.53,10.97-2.25,.94-4.69,1.22-7.12,.94-2.34-.28-4.69-1.03-7.12-2.44-3.37-1.88-6.75-4.78-10.68-9.09,6.18-7.59,9.93-14.53,11.34-20.71,.66-2.91,.75-5.53,.47-7.97-.37-2.34-1.22-4.5-2.53-6.37-2.91-4.22-7.78-6.65-13.22-6.65s-10.31,2.53-13.21,6.65c-1.31,1.87-2.16,4.03-2.53,6.37-.37,2.44-.28,5.16,.47,7.97,1.41,6.18,5.25,13.21,11.34,20.8-3.84,4.31-7.31,7.22-10.68,9.09-2.44,1.41-4.78,2.16-7.12,2.44-2.53,.28-4.97-.09-7.12-.94-4.59-1.87-7.87-6.09-8.53-10.97-.28-2.34-.09-4.69,.84-7.31,.28-.94,.75-1.87,1.22-3,.66-1.5,1.4-3.09,2.16-4.69l.09-.19c6.47-13.97,13.4-28.21,20.62-42.08l.28-.56c.75-1.4,1.5-2.9,2.25-4.31,.75-1.5,1.59-2.91,2.62-4.13,1.97-2.25,4.59-3.47,7.5-3.47s5.53,1.22,7.5,3.47c1.03,1.22,1.87,2.63,2.62,4.13,.75,1.41,1.5,2.91,2.25,4.31l.28,.56c7.11,13.93,13.95,27.99,20.52,42.17v.09c.75,1.5,1.41,3.19,2.16,4.69,.47,1.12,.94,2.06,1.22,3,.75,2.43,1.03,4.78,.65,7.21h0Z"/>
  </g>
</svg>