<?xml version="1.0" encoding="UTF-8"?>
<svg id="Layer_2" data-name="Layer 2" xmlns="http://www.w3.org/2000/svg" viewBox="0 0 300 46.26">
  <defs>
    <style>
      .cls-1 {
        fill: #fff517;
        fill-rule: evenodd;
      }
    </style>
  </defs>
  <g id="Layer_1-2" data-name="Layer 1">
    <g>
      <path id="path22" class="cls-1" d="M11.01,21.22c-3.18,2.91-3.97,13.9-.19,17.2,2.27,1.98,6.34,.86,8.79-1.15V20.26c-3.51-.65-6.56-.92-8.6,.96ZM27.64,0c.45,14.65,.06,30.14,.19,45.11h-5.54c-.82-.39-.64-1.78-1.15-2.48-2.74,1.55-4.45,3.17-7.84,3.44C-.76,47.17-3.53,25.51,4.32,17.2c3.14-3.33,10.49-5.41,15.29-2.48V1.53C22.15,.88,25.1,.65,27.64,0"/>
      <path id="path24" class="cls-1" d="M156.66,28.1c3.98-4.43,8.04-10.44,11.85-15.67,2.23,1.28,4.14,2.86,6.31,4.2-2.94,4.2-6.25,8.02-9.37,12.04,3.36,4.41,7.27,8.27,10.51,12.81-2.11,1.52-4.22,3.04-6.12,4.78-4.44-5.12-8.55-10.57-13-15.67-.45,4.46-.06,9.75-.19,14.53h-8.22V1.53c2.57-.62,5.5-.87,8.03-1.53,.45,8.98,.06,18.8,.19,28.1"/>
      <path id="path26" class="cls-1" d="M218.02,28.1c3.95-4.46,8.03-10.45,11.85-15.67,2.23,1.27,4.11,2.9,6.31,4.2-2.98,4.16-6.25,8.02-9.37,12.04,3.35,4.43,7.26,8.29,10.51,12.81-2.15,1.49-4.21,3.06-6.12,4.78-4.52-5.16-8.65-10.72-13.19-15.86v14.72h-8.22V1.53c2.55-.63,5.5-.87,8.03-1.53,.45,8.98,.06,18.8,.19,28.1"/>
      <path id="path28" class="cls-1" d="M40.45,38.23c1.69,2.96,8.25,.75,9.94-.96v-5.73c-5.82-1.24-12.71,1.83-9.94,6.69Zm17.58,6.88h-5.73c-.28-.8-.65-1.52-.76-2.48-3.86,3.02-12.35,5.42-16.63,.76-2.86-3.11-3.33-10.29,0-13.76,3.43-3.58,8.35-3.22,15.29-3.25,1.83-8.21-9.52-6.39-13.76-4.21-.62-1.8-1.38-3.46-2.1-5.16,3.12-2.49,7.72-4.18,13.57-3.63,13.63,1.27,9.56,16.65,10.13,31.73"/>
      <path id="path30" class="cls-1" d="M122.25,17.2c3.33-3.52,12.07-5.59,16.25-1.91,6.02,5.29,2.06,19.55,3.25,29.82h-8.41c-.43-5.27,.56-14.86,0-20.45-.11-1.11-.54-2.87-1.15-3.44-1.67-1.55-5.89-.68-8.22,0v23.89h-8.41c-.49-5.41,.65-15.21,0-20.83-.51-4.45-4.88-4.45-9.37-3.06v23.89h-8.41V14.14h5.73c.41,1,.93,1.88,1.15,3.06,3.23-4.04,14.93-5.93,17.58,0"/>
      <path id="path32" class="cls-1" d="M186.48,38.23c1.68,2.94,8.28,.78,9.94-.96v-5.73c-5.82-1.24-12.71,1.84-9.94,6.69Zm17.58,6.88h-5.73c-.28-.8-.65-1.52-.76-2.48-2.84,1.47-5.02,3.26-8.79,3.44-7.12,.34-10.25-4.35-10.13-9.94,.19-8.74,7.95-10.39,17.78-9.75,1.32-8.55-9.68-6.17-13.95-4.21-.57-1.97-1.57-3.53-2.1-5.54,3.79-1.93,7.37-3.74,13.38-3.25,5.83,.48,9.8,4.19,10.32,10.13,.53,6.06-.39,13.9,0,21.6"/>
      <path id="path34" class="cls-1" d="M247.83,38.23c1.69,2.96,8.25,.75,9.94-.96v-5.73c-5.82-1.24-12.71,1.83-9.94,6.69Zm17.58,6.88h-5.54c-.68-.46-.69-1.6-.96-2.48-3.86,3.03-12.36,5.42-16.63,.76-2.85-3.1-3.34-10.29,0-13.76,3.47-3.62,8.47-3.21,15.48-3.25,1.25-8.47-9.65-6.22-13.95-4.21-.62-1.8-1.38-3.46-2.1-5.16,3.14-2.5,7.54-4.11,13.38-3.63,13.79,1.13,9.79,16.53,10.32,31.73"/>
      <path id="path36" class="cls-1" d="M282.05,38.69c11.8,5.03,12.79-21.12,1.72-19.31-6.74,1.11-7.28,16.93-1.72,19.31Zm.38-25.61c8.35-1,13.25,2.99,15.29,6.88,5.11,9.74,.88,20.68-5.35,23.89-6.85,3.54-16.31,1.31-19.88-4.4-6.73-10.75-.77-25.09,9.94-26.38"/>
      <path id="path38" class="cls-1" d="M72.18,14.14c.34,3.04,.19,7.25,.19,11.47s-.67,8.67,.38,11.09c1.41,3.23,7,2.64,9.75,.77,.13-7.71-.25-15.93,.19-23.32h8.22v30.97h-5.54c-.91-.43-.73-1.95-1.15-2.87-3.67,3.97-12.7,5.27-17.01,1.53-6.01-5.22-2.1-18.89-3.25-29.05-.02-.27-.03-.54,.19-.57h8.03"/>
    </g>
  </g>
</svg>