<?xml version="1.0" encoding="UTF-8"?>
<svg id="Layer_2" data-name="Layer 2" xmlns="http://www.w3.org/2000/svg" viewBox="0 0 716.47 120.69">
  <defs>
    <style>
      .cls-1 {
        fill: #272a31;
      }

      .cls-2, .cls-3, .cls-4 {
        fill: #333;
      }

      .cls-2, .cls-5, .cls-6 {
        letter-spacing: -.05em;
      }

      .cls-7, .cls-5, .cls-8 {
        fill: #f63;
      }

      .cls-9 {
        fill: #0000df;
      }

      .cls-4, .cls-8 {
        letter-spacing: -.05em;
      }

      .cls-10 {
        fill: none;
      }

      .cls-11 {
        font-family: IBMPlexMono-SemiBold, 'IBM Plex Mono';
        font-size: 108.43px;
        font-weight: 600;
      }

      .cls-12 {
        fill: #ec5242;
      }
    </style>
  </defs>
  <g id="Layer_1-2" data-name="Layer 1">
    <g>
      <text class="cls-11" transform="translate(116.05 92.06)"><tspan class="cls-2" x="0" y="0">P</tspan><tspan class="cls-5" x="59.53" y="0">S</tspan><tspan class="cls-4" x="119.06" y="0">C</tspan><tspan class="cls-6" x="178.59" y="0"> </tspan><tspan class="cls-8" x="238.11" y="0">2</tspan><tspan class="cls-2" x="297.64" y="0">0</tspan><tspan class="cls-5" x="357.17" y="0">2</tspan><tspan class="cls-2" x="416.7" y="0">3</tspan></text>
      <g>
        <rect class="cls-10" x="688.28" y="36.63" width="17.14" height=".03"/>
        <polygon class="cls-3" points="654.01 36.63 654.01 18.97 636.87 18.97 636.87 36.51 636.87 36.63 654.01 36.63"/>
        <rect class="cls-7" x="654.01" y="18.97" width="17.14" height="17.66"/>
        <rect class="cls-3" x="671.14" y="18.97" width="17.14" height="17.66"/>
        <polygon class="cls-7" points="705.41 36.63 705.41 36.57 705.41 18.97 688.28 18.97 688.28 36.63 705.41 36.63"/>
        <polygon class="cls-7" points="654.01 36.63 636.87 36.63 636.87 54.17 636.87 54.23 654.01 54.23 654.01 36.63"/>
        <path class="cls-1" d="M671.14,36.66v-.03h-17.14v17.6h0c.05-9.71,7.7-17.57,17.13-17.57Z"/>
        <path class="cls-7" d="M688.28,36.63h-17.14v.03c9.43,0,17.09,7.86,17.13,17.57h0v-17.6Z"/>
        <rect class="cls-3" x="688.28" y="36.66" width="17.14" height="17.57"/>
        <polygon class="cls-3" points="654.01 71.83 654.01 54.32 654.01 54.29 636.87 54.29 636.87 71.89 654.01 71.89 654.01 71.83"/>
        <rect class="cls-1" x="636.87" y="54.23" width="17.14" height=".06"/>
        <path class="cls-7" d="M654.01,54.32v17.51h14.92c-8.42-1.12-14.92-8.53-14.92-17.51Z"/>
        <path class="cls-12" d="M654.01,54.29v.03s0-.02,0-.03h0Z"/>
        <path class="cls-12" d="M654.01,54.23h0v.06h0s0-.04,0-.06Z"/>
        <path class="cls-3" d="M672.87,71.89h15.41v-17.57c0,9.16-6.76,16.68-15.41,17.57Z"/>
        <path class="cls-1" d="M688.28,54.32v-.03h0s0,.02,0,.03Z"/>
        <path class="cls-1" d="M688.28,54.29h0v-.06h0s0,.04,0,.06Z"/>
        <rect class="cls-7" x="688.28" y="54.32" width="17.14" height="17.57"/>
        <polygon class="cls-12" points="688.28 54.23 688.28 54.29 688.28 54.32 705.41 54.32 705.41 54.29 705.41 54.23 688.28 54.23"/>
        <polygon class="cls-7" points="654.01 71.89 636.87 71.89 636.87 89.55 654.01 89.55 654.01 89.5 654.01 71.89"/>
        <path class="cls-3" d="M669.42,71.89h-15.41v17.6h17.14v-17.51c-.58,0-1.15-.03-1.72-.09Z"/>
        <path class="cls-1" d="M668.93,71.83h-14.92v.06h15.41c-.16-.02-.33-.04-.49-.06Z"/>
        <path class="cls-7" d="M671.14,71.98v17.51h17.14v-17.6h-15.41c-.57,.06-1.14,.09-1.72,.09Z"/>
        <polygon class="cls-3" points="688.28 71.89 688.28 89.5 688.28 89.55 705.41 89.55 705.41 71.95 705.41 71.89 688.28 71.89"/>
        <rect class="cls-3" x="654.01" y="7.52" width="17.14" height="11.42"/>
        <polygon class="cls-3" points="636.87 36.51 625.82 36.51 625.82 54.17 636.87 54.17 636.87 36.63 636.87 36.51"/>
        <polygon class="cls-7" points="636.87 54.23 625.82 54.23 625.82 71.89 636.87 71.89 636.87 54.29 636.87 54.23"/>
        <polygon class="cls-7" points="705.41 36.66 705.41 54.23 716.47 54.23 716.47 36.57 705.41 36.57 705.41 36.63 705.41 36.66"/>
        <polygon class="cls-3" points="705.41 71.89 705.41 71.95 716.47 71.95 716.47 54.29 705.41 54.29 705.41 54.32 705.41 71.89"/>
        <rect class="cls-7" x="671.14" y="7.52" width="17.14" height="11.42"/>
        <polygon class="cls-7" points="671.14 89.5 654.01 89.5 654.01 89.55 654.01 100.91 671.14 100.91 671.14 89.55 671.14 89.5"/>
        <rect class="cls-3" x="671.14" y="89.55" width="17.14" height="11.36"/>
        <rect class="cls-1" x="671.14" y="89.5" width="17.14" height=".06"/>
        <path class="cls-9" d="M671.14,71.98v-.09h-1.72c.57,.06,1.14,.09,1.72,.09Z"/>
        <path class="cls-9" d="M669.42,71.89h1.72v-.06h-2.21c.16,.02,.33,.04,.49,.06Z"/>
        <path class="cls-9" d="M672.87,71.89h-1.72v.09c.58,0,1.15-.03,1.72-.09Z"/>
      </g>
      <g>
        <rect class="cls-10" x="62.46" y="36.63" width="17.14" height=".03"/>
        <polygon class="cls-3" points="28.19 36.63 28.19 18.97 11.05 18.97 11.05 36.51 11.05 36.63 28.19 36.63"/>
        <rect class="cls-7" x="28.19" y="18.97" width="17.14" height="17.66"/>
        <rect class="cls-3" x="45.32" y="18.97" width="17.14" height="17.66"/>
        <polygon class="cls-7" points="79.59 36.63 79.59 36.57 79.59 18.97 62.46 18.97 62.46 36.63 79.59 36.63"/>
        <polygon class="cls-7" points="28.19 36.63 11.05 36.63 11.05 54.17 11.05 54.23 28.19 54.23 28.19 36.63"/>
        <path class="cls-1" d="M45.32,36.66v-.03H28.19v17.6h0c.05-9.71,7.7-17.57,17.13-17.57Z"/>
        <path class="cls-7" d="M62.46,36.63h-17.14v.03c9.43,0,17.09,7.86,17.13,17.57h0v-17.6Z"/>
        <rect class="cls-3" x="62.46" y="36.66" width="17.14" height="17.57"/>
        <polygon class="cls-3" points="28.19 71.83 28.19 54.32 28.19 54.29 11.05 54.29 11.05 71.89 28.19 71.89 28.19 71.83"/>
        <rect class="cls-1" x="11.05" y="54.23" width="17.14" height=".06"/>
        <path class="cls-7" d="M28.19,54.32v17.51h14.92c-8.42-1.12-14.92-8.53-14.92-17.51Z"/>
        <path class="cls-12" d="M28.19,54.29v.03s0-.02,0-.03h0Z"/>
        <path class="cls-12" d="M28.19,54.23h0v.06h0s0-.04,0-.06Z"/>
        <path class="cls-3" d="M47.04,71.89h15.41v-17.57c0,9.16-6.76,16.68-15.41,17.57Z"/>
        <path class="cls-1" d="M62.46,54.32v-.03h0s0,.02,0,.03Z"/>
        <path class="cls-1" d="M62.46,54.29h0v-.06h0s0,.04,0,.06Z"/>
        <rect class="cls-7" x="62.46" y="54.32" width="17.14" height="17.57"/>
        <polygon class="cls-12" points="62.46 54.23 62.46 54.29 62.46 54.32 79.59 54.32 79.59 54.29 79.59 54.23 62.46 54.23"/>
        <polygon class="cls-7" points="28.19 71.89 11.05 71.89 11.05 89.55 28.19 89.55 28.19 89.5 28.19 71.89"/>
        <path class="cls-3" d="M43.6,71.89h-15.41v17.6h17.14v-17.51c-.58,0-1.15-.03-1.72-.09Z"/>
        <path class="cls-1" d="M43.11,71.83h-14.92v.06h15.41c-.16-.02-.33-.04-.49-.06Z"/>
        <path class="cls-7" d="M45.32,71.98v17.51h17.14v-17.6h-15.41c-.57,.06-1.14,.09-1.72,.09Z"/>
        <polygon class="cls-3" points="62.46 71.89 62.46 89.5 62.46 89.55 79.59 89.55 79.59 71.95 79.59 71.89 62.46 71.89"/>
        <rect class="cls-3" x="28.19" y="7.52" width="17.14" height="11.42"/>
        <polygon class="cls-3" points="11.05 36.51 0 36.51 0 54.17 11.05 54.17 11.05 36.63 11.05 36.51"/>
        <polygon class="cls-7" points="11.05 54.23 0 54.23 0 71.89 11.05 71.89 11.05 54.29 11.05 54.23"/>
        <polygon class="cls-7" points="79.59 36.66 79.59 54.23 90.64 54.23 90.64 36.57 79.59 36.57 79.59 36.63 79.59 36.66"/>
        <polygon class="cls-3" points="79.59 71.89 79.59 71.95 90.64 71.95 90.64 54.29 79.59 54.29 79.59 54.32 79.59 71.89"/>
        <rect class="cls-7" x="45.32" y="7.52" width="17.14" height="11.42"/>
        <polygon class="cls-7" points="45.32 89.5 28.19 89.5 28.19 89.55 28.19 100.91 45.32 100.91 45.32 89.55 45.32 89.5"/>
        <rect class="cls-3" x="45.32" y="89.55" width="17.14" height="11.36"/>
        <rect class="cls-1" x="45.32" y="89.5" width="17.14" height=".06"/>
        <path class="cls-9" d="M45.32,71.98v-.09h-1.72c.57,.06,1.14,.09,1.72,.09Z"/>
        <path class="cls-9" d="M43.6,71.89h1.72v-.06h-2.21c.16,.02,.33,.04,.49,.06Z"/>
        <path class="cls-9" d="M47.04,71.89h-1.72v.09c.58,0,1.15-.03,1.72-.09Z"/>
      </g>
    </g>
  </g>
</svg>