<?xml version="1.0" encoding="UTF-8"?>
<svg id="Layer_2" data-name="Layer 2" xmlns="http://www.w3.org/2000/svg" viewBox="0 0 300 85.79">
  <defs>
    <style>
      .cls-1 {
        fill: #fff;
      }
    </style>
  </defs>
  <g id="Layer_1-2" data-name="Layer 1">
    <g>
      <rect width="300" height="85.79"/>
      <path class="cls-1" d="M286.53,61.58c-.59,.17-1.08,.26-1.58,.26-1.75,0-2.58-.75-2.58-2.91v-16.31c0-8.57-6.83-12.73-14.9-12.73-6.16,0-9.48,.75-16.06,3.4l-1.47,8.64,8.56,.92,1.21-4.23c1.75-.92,3.5-1.08,5.75-1.08,6.07,0,6.16,4.58,6.16,8.4v1.24c-1.92-.26-4.08-.33-6.16-.33-8.56,0-17.48,2.16-17.48,11.4,0,7.82,6.15,10.74,11.56,10.74,6.07,0,9.9-3.66,12.06-7.48,.5,4.58,3.24,7.48,8.24,7.48,2.33,0,4.74-.66,6.74-1.76l-.06-5.65Zm-23.04-.24c-3.24,0-4.41-1.92-4.41-4.33,0-4.08,3.33-5.16,7.15-5.16,1.74,0,3.66,.26,5.41,.49-.25,6.26-4.33,9-8.16,9Zm-14.41-50.43l-16.23,57.26h-10.57l16.23-57.26h10.58Zm-21.8,0l-16.23,57.25h-10.56l16.23-57.26h10.56Zm-45.06,19.73h11.24v13.47h-11.24v-13.47Zm0,24.05h11.24v13.48h-11.24v-13.48Zm-16.35-.49l8.49,.82-2.33,13.16h-32.79l-1.08-5.66,20.64-23.72h-11.73l-1.66,5.82-7.74-.84,1.34-13.15h32.96l.84,5.65-20.82,23.73h12.15l1.74-5.82Zm-53.78-24.3c-13.49,0-20.14,9.08-20.14,20.05,0,11.98,7.99,19.05,19.56,19.05s20.64-7.57,20.64-19.56c0-10.48-6.59-19.55-20.06-19.55Zm-.26,30.87c-5.82,0-8.82-4.99-8.82-11.49,0-7.08,3.41-11.15,8.91-11.15,5.07,0,9.15,3.4,9.15,10.98,0,7.16-3.66,11.66-9.24,11.66Zm-29.55-.75h4.99v8.16h-15.73v-21.13c0-6.49-2.16-8.98-6.41-8.98-5.16,0-7.24,3.66-7.24,8.91v13.05h4.99v8.16h-15.72v-21.13c0-6.49-2.16-8.98-6.41-8.98-5.16,0-7.25,3.66-7.25,8.91v13.05h7.15v8.16H17.8v-8.16h5v-21.23h-5v-8.16h15.72v5.65c2.25-3.99,6.17-6.4,11.4-6.4s10.39,2.58,12.24,8.07c2.08-5,6.33-8.07,12.24-8.07,6.73,0,12.9,4.08,12.9,12.97v17.16h-.02Z"/>
    </g>
  </g>
</svg>