<?xml version="1.0" encoding="UTF-8"?>
<svg id="Layer_2" data-name="Layer 2" xmlns="http://www.w3.org/2000/svg" viewBox="0 0 300 54.03">
  <defs>
    <style>
      .cls-1 {
        fill: #57b04b;
      }
    </style>
  </defs>
  <g id="Layer_1-2" data-name="Layer 1">
    <path class="cls-1" d="M0,.19H21.18s19.24,29.07,19.81,29.85c.57,.78,.65,0,.65,0-.89-4.5-1.85-6.52-1.85-13.71V.19h21.1V54.03h-21.1S20.94,26.51,20.37,25.75c-.57-.76-.64,0-.64,0,.72,3.72,1.37,4.34,1.37,10.78v17.5H0V.19ZM94.15,34.53l2.87-10.93c.62-2.21,1.05-5.39,1.05-5.39,.09-.49,.76-.49,.88,.02,.14,.75,.48,3.04,1.12,5.32l2.94,10.98h-8.86Zm-3.95,12.79h16.68l2.01,6.71h23.35L110.58,.19h-24.4l-21.1,53.84h23.36l1.77-6.71ZM187.83,.19l-23.52,53.84h-18.69L122.11,.19h23.04l8.05,24.49c.88,2.64,1.53,8.44,1.53,8.44,.15,.46,.69,.42,.78,0,0,0,.65-5.8,1.53-8.44L164.8,.19h23.04Zm4.59,0h40.84V14.9h-18.61v5.14h17v14h-17v5.28h19.25v14.71h-41.48V.19h0Zm72.05,14.53h1.7c3.78,0,7.09,.5,7.09,4.64s-3.63,4.5-7.25,4.5h-1.53V14.71Zm-21.58,39.13h21.58v-17.28s.14-.61,.55,0l9.52,17.28h25.45l-13.21-17.5c-1.21-1.57-3.25-2.91-3.7-3.21-.45-.3,0-.43,0-.43,8.22-2.43,11.76-5.85,11.76-13.99,0-13.57-11.61-18.71-25.3-18.71h-26.66V53.84Z"/>
  </g>
</svg>